<svg id="Capa_1" enable-background="new 0 0 500.063 500.063" height="512" viewBox="0 0 500.063 500.063" width="512" xmlns="http://www.w3.org/2000/svg"><g><g><path d="m401.836 50.602v-40.68h-29.766v40.68h-107.156v-40.68h-29.766v40.68h-107.156v-40.68h-29.765v40.68h-98.227v439.539h500.063v-439.539zm-303.609 29.765v40.68h29.766v-40.68h107.156v40.68h29.766v-40.68h107.155v40.68h29.766v-40.68h68.461v70.445h-440.531v-70.445zm-68.461 380.008v-279.797h440.531v279.797z"/><path d="m350.663 275.68c-17.553-39.418-56.947-65.337-100.632-65.337s-83.079 25.92-100.631 65.337c-19.517 5.651-33.692 23.734-33.692 44.796s14.174 39.146 33.692 44.796c17.553 39.418 56.947 65.337 100.632 65.337s83.079-25.919 100.632-65.337c19.517-5.651 33.692-23.734 33.692-44.796s-14.176-39.145-33.693-44.796zm-11.779 61.616-9.779.658-3.258 9.244c-11.309 32.086-41.777 53.646-75.815 53.646s-64.506-21.559-75.814-53.646l-3.258-9.244-9.779-.658c-8.807-.592-15.705-7.98-15.705-16.82s6.899-16.226 15.705-16.82l9.779-.658 3.258-9.244c11.308-32.086 41.776-53.646 75.814-53.646s64.506 21.559 75.814 53.646l3.258 9.244 9.779.658c8.807.592 15.705 7.98 15.705 16.82s-6.898 16.227-15.704 16.82z"/><path d="m202.05 305.594h32.106v29.766h-32.106z"/><path d="m265.906 305.594h32.106v29.766h-32.106z"/></g></g></svg>